<svg width="246" height="154" viewBox="0 0 246 154" fill="none" xmlns="http://www.w3.org/2000/svg">
<path d="M49.1977 153.2C41.7977 141.4 41.5977 130.6 41.5977 129.6L41.3977 49.4L0.797656 63.4C17.3977 67.6 18.1977 81.2 18.1977 81.2V130.2C18.1977 133 17.7977 144.6 10.5977 153.2H49.1977ZM69.3039 -9.05991e-06C63.7039 5.59999 55.1039 14 55.1039 14C69.3039 24 71.9039 35.4 71.9039 42.8C71.9039 47.6 70.9039 50.8 70.9039 50.8C70.9039 50.8 80.7039 38.2 83.3039 27.6C83.9039 25.6 84.1039 23.6 84.1039 21.8C84.1039 7.19999 69.3039 -9.05991e-06 69.3039 -9.05991e-06ZM137.284 153.2C129.884 141.4 129.684 130.6 129.684 129.6L129.484 49.4L88.8836 63.4C105.484 67.6 106.284 81.2 106.284 81.2V130.2C106.284 133 105.884 144.6 98.6836 153.2H137.284ZM191.19 153.2C183.79 141.4 183.59 130.6 183.59 129.6L183.39 49.4L142.79 63.4C159.39 67.6 160.19 81.2 160.19 81.2V130.2C160.19 133 159.79 144.6 152.59 153.2H191.19ZM245.096 153.2C237.696 141.4 237.496 130.6 237.496 129.6L237.296 49.4L196.696 63.4C213.296 67.6 214.096 81.2 214.096 81.2V130.2C214.096 133 213.696 144.6 206.496 153.2H245.096Z" fill="black"/>
</svg>
