<svg width="49" height="76" xmlns="http://www.w3.org/2000/svg" xmlns:xlink="http://www.w3.org/1999/xlink" overflow="hidden"><defs><clipPath id="clip0"><rect x="1866" y="1186" width="49" height="76"/></clipPath></defs><g clip-path="url(#clip0)" transform="translate(-1866 -1186)"><path d="M1890.51 1186C1888.39 1186 1886.67 1187.75 1886.67 1189.89L1886.67 1224.42 1884.51 1224.42 1884.51 1194.32C1884.51 1192.18 1882.79 1190.44 1880.67 1190.44 1878.55 1190.44 1876.84 1192.18 1876.84 1194.32L1876.84 1224.42 1874.68 1224.42 1874.68 1206.15C1874.68 1204.01 1872.95 1202.26 1870.84 1202.26 1868.72 1202.26 1867 1204.01 1867 1206.15L1867 1238.26C1867 1251.38 1877.51 1262 1890.47 1262 1903.43 1262 1913.94 1251.36 1913.94 1238.26L1914 1238.26 1914 1207.72C1909.76 1207.72 1906.32 1211.2 1906.32 1215.49L1906.32 1224.42 1904.18 1224.42 1904.18 1194.32C1904.18 1192.18 1902.46 1190.44 1900.34 1190.44 1898.22 1190.44 1896.51 1192.18 1896.51 1194.32L1896.51 1224.42 1894.35 1224.42 1894.35 1189.89C1894.35 1187.75 1892.62 1186 1890.51 1186Z" fill-rule="evenodd"/></g></svg>